HIERARCHY
ROOT Hips
{
	OFFSET 0.000000 0.000000 0.000000
	CHANNELS 6 Xposition Yposition Zposition Zrotation Yrotation Xrotation 
	JOINT LHipJoint
	{
		OFFSET 0.000000 0.000000 0.000000
		CHANNELS 3 Zrotation Yrotation Xrotation
		JOINT LeftUpLeg
		{
			OFFSET 1.363060 -1.794630 0.839290
			CHANNELS 3 Zrotation Yrotation Xrotation
			JOINT LeftLeg
			{
				OFFSET 2.448110 -6.726130 0.000000
				CHANNELS 3 Zrotation Yrotation Xrotation
				JOINT LeftFoot
				{
					OFFSET 2.562200 -7.039590 0.000000
					CHANNELS 3 Zrotation Yrotation Xrotation
					JOINT LeftToeBase
					{
						OFFSET 0.157640 -0.433110 2.322550
						CHANNELS 3 Zrotation Yrotation Xrotation
						End Site
						{
							OFFSET 0.000000 0.000000 0.000000
						}
					}
				}
			}
		}
	}
	JOINT RHipJoint
	{
		OFFSET 0.000000 0.000000 0.000000
		CHANNELS 3 Zrotation Yrotation Xrotation
		JOINT RightUpLeg
		{
			OFFSET -1.305520 -1.794630 0.839290
			CHANNELS 3 Zrotation Yrotation Xrotation
			JOINT RightLeg
			{
				OFFSET -2.542530 -6.985550 0.000000
				CHANNELS 3 Zrotation Yrotation Xrotation
				JOINT RightFoot
				{
					OFFSET -2.568260 -7.056230 0.000000
					CHANNELS 3 Zrotation Yrotation Xrotation
					JOINT RightToeBase
					{
						OFFSET -0.164730 -0.452590 2.363150
						CHANNELS 3 Zrotation Yrotation Xrotation
						End Site
						{
							OFFSET 0.000000 0.000000 0.000000
						}
					}
				}
			}
		}
	}
	JOINT LowerBack
	{
		OFFSET 0.000000 0.000000 0.000000
		CHANNELS 3 Zrotation Yrotation Xrotation
		JOINT Spine
		{
			OFFSET 0.028270 2.035590 -0.193380
			CHANNELS 3 Zrotation Yrotation Xrotation
			JOINT Spine1
			{
				OFFSET 0.056720 2.048850 -0.042750
				CHANNELS 3 Zrotation Yrotation Xrotation
				JOINT Neck
				{
					OFFSET 0.000000 0.000000 0.000000
					CHANNELS 3 Zrotation Yrotation Xrotation
					JOINT Neck1
					{
						OFFSET -0.054170 1.746240 0.172020
						CHANNELS 3 Zrotation Yrotation Xrotation
						JOINT Head
						{
							OFFSET 0.104070 1.761360 -0.123970
							CHANNELS 3 Zrotation Yrotation Xrotation
							End Site
							{
								OFFSET 0.000000 0.000000 0.000000
							}
						}
					}
				}
				JOINT LeftShoulder
				{
					OFFSET 0.000000 0.000000 0.000000
					CHANNELS 3 Zrotation Yrotation Xrotation
					JOINT LeftArm
					{
						OFFSET 3.362410 1.200890 -0.311210
						CHANNELS 3 Zrotation Yrotation Xrotation
						JOINT LeftForeArm
						{
							OFFSET 4.983000 -0.000000 -0.000000
							CHANNELS 3 Zrotation Yrotation Xrotation
							JOINT LeftHand
							{
								OFFSET 3.483560 -0.000000 -0.000000
								CHANNELS 3 Zrotation Yrotation Xrotation
								JOINT LeftFingerBase
								{
									OFFSET 0.000000 0.000000 0.000000
									CHANNELS 3 Zrotation Yrotation Xrotation
									JOINT LeftHandIndex1
									{
										OFFSET 0.715260 -0.000000 -0.000000
										CHANNELS 3 Zrotation Yrotation Xrotation
										End Site
										{
											OFFSET 0.000000 0.000000 0.000000
										}
									}
								}
								JOINT LThumb
								{
									OFFSET 0.000000 0.000000 0.000000
									CHANNELS 3 Zrotation Yrotation Xrotation
									End Site
									{
										OFFSET 0.000000 0.000000 0.000000
									}
								}
							}
						}
					}
				}
				JOINT RightShoulder
				{
					OFFSET 0.000000 0.000000 0.000000
					CHANNELS 3 Zrotation Yrotation Xrotation
					JOINT RightArm
					{
						OFFSET -3.136600 1.374050 -0.404650
						CHANNELS 3 Zrotation Yrotation Xrotation
						JOINT RightForeArm
						{
							OFFSET -5.241900 -0.000000 -0.000000
							CHANNELS 3 Zrotation Yrotation Xrotation
							JOINT RightHand
							{
								OFFSET -3.444170 -0.000000 -0.000000
								CHANNELS 3 Zrotation Yrotation Xrotation
								JOINT RightFingerBase
								{
									OFFSET 0.000000 0.000000 0.000000
									CHANNELS 3 Zrotation Yrotation Xrotation
									JOINT RightHandIndex1
									{
										OFFSET -0.622530 -0.000000 -0.000000
										CHANNELS 3 Zrotation Yrotation Xrotation
										End Site
										{
											OFFSET 0.000000 0.000000 0.000000
										}
									}
								}
								JOINT RThumb
								{
									OFFSET 0.000000 0.000000 0.000000
									CHANNELS 3 Zrotation Yrotation Xrotation
									End Site
									{
										OFFSET 0.000000 0.000000 0.000000
									}
								}
							}
						}
					}
				}
			}
		}
	}
}
MOTION
Frames: 10
Frame Time: 0.008333
31.380824 18.201667 21.189493 -176.609656 1.795966 -175.772277 -5.029403 -3.010299 -0.273166 -11.177428 0.737597 -14.883785 1.804151 10.969416 29.784211 1.186053 -9.637429 -8.375229 0.058800 1.565000 4.304800 4.188969 2.708051 -0.514772 19.382313 -2.922544 -7.903514 -1.579448 -10.406081 27.238570 -1.673418 5.973766 -13.233717 -0.132000 -2.342000 6.451800 4.949391 1.309273 6.104728 1.929167 2.304120 -2.530021 2.871214 1.306188 0.937205 -9.204972 1.848176 -11.897189 3.129644 0.251527 23.715139 2.598600 -2.512500 15.008000 -0.009805 -1.299041 0.331961 -93.394383 8.202836 20.685094 13.842487 -24.592330 -3.130838 0.162674 0.549756 -0.565233 20.706886 22.127603 7.841900 -7.125000 0.000000 0.000000 -8.476300 52.667600 -1.608700 1.952696 1.128630 -0.378364 78.962838 2.458454 16.703675 -16.389252 25.560480 -4.200331 0.397772 -0.069461 -12.083441 -21.324845 10.079233 -4.036900 7.125000 0.000000 0.000000 3.773200 -19.016600 2.342900 
31.369593 18.197822 21.169965 -176.761759 1.645528 -175.764251 -5.023742 -3.008658 -0.277736 -11.397290 0.580468 -14.749811 1.793361 10.965664 29.761981 1.177610 -9.513793 -8.430898 0.110000 2.138700 5.889100 4.208186 2.708391 -0.512205 19.197632 -2.914786 -7.884423 -1.602731 -10.459678 27.394899 -1.668733 5.730859 -13.598029 -0.106000 -2.099300 5.780300 4.920173 1.505682 6.189183 1.803484 2.552714 -2.504463 2.557048 1.428076 0.988203 -9.127294 1.582049 -12.086268 3.197367 -0.084338 23.614846 2.614600 -2.598800 15.042200 -0.041574 -1.288386 0.334994 -92.885642 7.982255 21.612674 14.072074 -24.871588 -3.211657 0.165018 0.541300 -0.731131 21.089321 21.886404 7.916900 -7.125000 0.000000 0.000000 -8.014800 52.496200 -1.486500 1.912164 1.136494 -0.376989 79.578855 2.367586 16.131489 -16.581765 25.805801 -4.291168 0.377823 -0.074414 -11.808589 -20.876265 10.322973 -4.034000 7.125000 0.000000 0.000000 4.111400 -18.794000 2.574300 
31.359373 18.176371 21.152359 -176.921424 1.652077 -175.793960 -5.018988 -3.002860 -0.274847 -11.617971 0.456365 -14.576451 1.780455 10.958209 29.722880 1.174196 -9.445374 -8.505381 0.117200 2.206800 6.077700 4.231912 2.700368 -0.517358 19.041318 -2.374920 -7.600189 -1.625424 -10.528024 27.589149 -1.637264 5.234422 -14.110093 -0.063800 -1.630000 4.484300 4.859798 1.728846 6.352326 1.671529 2.841323 -2.473589 2.239285 1.571290 1.021170 -8.997072 1.359395 -12.297072 3.251282 -0.382804 23.559260 2.610800 -2.670200 15.109100 -0.073680 -1.283955 0.337378 -92.319281 7.701610 22.666679 14.314710 -25.159530 -3.293877 0.162052 0.527004 -1.012928 21.087005 21.205704 7.683100 -7.125000 0.000000 0.000000 -7.792900 51.807500 -1.313000 1.881258 1.149598 -0.372281 80.175318 2.545252 15.433244 -16.541304 25.745182 -4.272766 0.354566 -0.081151 -11.165607 -20.209819 10.374028 -3.910000 7.125000 0.000000 0.000000 4.600100 -18.794200 2.882100 
31.348850 18.164938 21.133134 -176.943430 1.670847 -175.829303 -5.040658 -2.994355 -0.256398 -11.685008 0.365133 -14.451889 1.781971 10.969509 29.738556 1.215733 -9.506412 -9.017557 0.054100 1.500600 4.127400 4.227201 2.693315 -0.512628 19.031652 -2.186405 -7.465840 -1.650881 -10.585592 27.765801 -1.627139 4.933348 -14.538307 -0.019300 -0.897100 2.465800 4.670255 1.616969 6.425733 1.739772 2.692787 -2.549377 2.510562 1.489481 0.743833 -9.093310 1.643764 -12.018833 3.166754 -0.032570 23.684707 2.593400 -2.591700 15.082500 -0.054897 -1.307092 0.332126 -92.583319 8.135457 22.666802 14.668607 -25.637429 -3.432312 0.159678 0.528161 -1.517961 21.214354 20.772340 7.579400 -7.125000 0.000000 0.000000 -7.528900 51.379600 -1.188800 1.899112 1.143247 -0.392491 80.152613 2.220601 16.058077 -16.605248 25.826473 -4.299287 0.343135 -0.080797 -10.981734 -19.899699 10.465263 -3.875500 7.125000 0.000000 0.000000 4.828800 -18.725900 3.033700 
31.334179 18.163825 21.110065 -176.796776 1.591322 -175.782700 -5.045795 -2.995747 -0.264379 -11.608876 0.211057 -14.409880 1.792552 10.989872 29.796345 1.271899 -9.516528 -9.696231 0.009900 0.644000 1.769700 4.226876 2.698262 -0.512311 19.126017 -2.535190 -7.664246 -1.679398 -10.634364 27.914349 -1.659915 5.028835 -14.752544 -0.001700 -0.266300 0.731600 4.872455 1.617572 6.361021 1.739395 2.702495 -2.521972 2.405100 1.499334 0.896783 -9.122004 1.643295 -12.372916 3.187706 0.025546 23.799325 2.624200 -2.573000 15.255200 -0.054313 -1.302171 0.330577 -92.545823 7.927123 22.894236 14.915768 -25.953381 -3.528757 0.157610 0.528954 -1.997100 21.410277 20.707440 7.631900 -7.125000 0.000000 0.000000 -7.316800 51.345800 -1.148900 1.889247 1.137512 -0.400179 80.375210 2.091014 16.430594 -16.914803 26.213664 -4.439783 0.352553 -0.062803 -10.887993 -20.322921 9.860947 -3.736900 7.125000 0.000000 0.000000 4.508300 -19.350900 2.768300 
31.319709 18.155224 21.085376 -176.533810 1.491238 -175.689579 -5.024120 -3.000684 -0.283464 -11.410132 0.144299 -14.417377 1.806415 10.997094 29.833509 1.303099 -9.727292 -9.862788 0.008400 0.592400 1.627800 4.235964 2.706278 -0.522352 19.324316 -2.856617 -7.897964 -1.711708 -10.689856 28.077316 -1.703636 5.294280 -14.800387 -0.000100 0.047300 -0.130000 5.341968 1.858233 6.230526 1.638269 3.030913 -2.411445 1.917613 1.680817 1.344851 -8.994154 1.257811 -13.003282 3.309288 -0.412151 23.728326 2.664300 -2.666500 15.431500 -0.082317 -1.267784 0.336611 -91.972405 7.105893 23.876532 15.017261 -26.056870 -3.562446 0.151060 0.528354 -2.157384 21.371880 21.248763 7.812400 -7.125000 0.000000 0.000000 -7.522900 51.903300 -1.284800 1.850236 1.139146 -0.385972 81.001720 2.316912 15.910827 -17.170408 26.528305 -4.561358 0.370506 -0.067868 -10.764765 -21.234253 9.873704 -3.928400 7.125000 0.000000 0.000000 3.848400 -19.260300 2.368900 
31.306455 18.145308 21.059777 -176.485009 1.342603 -175.636558 -5.061865 -2.991218 -0.255175 -11.370551 0.064361 -14.412551 1.812730 11.000896 29.843887 1.322212 -9.990767 -9.880483 0.027500 1.069900 2.941200 4.207131 2.702810 -0.510175 19.392582 -2.917716 -8.034927 -1.746234 -10.746133 28.280524 -1.680617 5.058891 -14.948830 -0.003500 0.383600 -1.053900 4.992639 1.537957 6.037319 1.870143 2.593813 -2.612134 2.747186 1.446521 0.709051 -9.468856 1.782215 -11.606884 3.192400 0.222170 23.612624 2.708500 -2.551600 14.875300 -0.035995 -1.288985 0.334327 -92.898007 8.172617 23.052892 15.440852 -26.666418 -3.749066 0.142909 0.556713 -2.067334 21.369088 22.554441 8.266400 -7.125000 0.000000 0.000000 -7.952700 53.224700 -1.617000 1.894702 1.109764 -0.414689 80.451555 1.313534 17.138820 -17.235160 26.639200 -4.593886 0.376396 -0.079787 -10.757911 -21.628979 10.575419 -4.290000 7.125000 0.000000 0.000000 3.586100 -18.465800 2.270000 
31.288950 18.137720 21.032154 -176.713692 1.209346 -175.610577 -5.073271 -2.992013 -0.257599 -11.712833 -0.176282 -14.296733 1.805204 11.001969 29.833808 1.341040 -10.037514 -10.148213 0.038900 1.272900 3.500000 4.220069 2.703221 -0.504764 19.074264 -2.931083 -8.151515 -1.792541 -10.830549 28.552938 -1.670064 4.865920 -15.150192 -0.004300 0.422400 -1.160700 4.823064 1.655473 6.078663 1.793452 2.729108 -2.635992 2.617012 1.508057 0.635124 -9.282306 1.683542 -11.668435 3.080009 0.053626 23.614776 2.593200 -2.596700 14.921900 -0.049340 -1.297794 0.333445 -92.643266 8.180401 23.725670 15.841092 -27.167835 -3.910314 0.132486 0.559295 -2.310978 21.271094 22.931566 8.359400 -7.125000 0.000000 0.000000 -8.179900 53.593800 -1.737700 1.886540 1.112394 -0.421542 80.764458 1.279738 16.624348 -17.178357 26.558056 -4.564685 0.362922 -0.067026 -9.984792 -21.104364 9.878239 -3.900500 7.125000 0.000000 0.000000 3.944600 -19.273200 2.427200 
31.270231 18.131851 21.004430 -176.821482 1.149018 -175.723635 -5.086327 -2.985618 -0.244202 -11.933731 -0.295840 -14.025046 1.793344 10.995299 29.786210 1.356256 -10.129696 -10.320334 0.025500 1.030000 2.831500 4.210495 2.704383 -0.505534 18.860272 -3.221645 -8.245798 -1.870999 -10.959066 28.956850 -1.727031 5.137743 -15.311921 -0.001800 0.276100 -0.758700 4.677262 1.637364 6.165622 1.812333 2.707695 -2.632568 2.751826 1.494421 0.590775 -9.385639 1.678916 -11.657787 3.005979 0.078520 23.621937 2.569800 -2.611600 14.924700 -0.045611 -1.304222 0.335722 -92.732153 8.276679 23.902395 16.189915 -27.611230 -4.054566 0.132024 0.555237 -2.621320 21.368247 22.356034 8.198900 -7.125000 0.000000 0.000000 -7.878000 53.022100 -1.562500 1.893182 1.107938 -0.425771 80.742904 1.116472 16.631499 -17.205931 26.607000 -4.583696 0.337425 -0.092474 -9.800359 -20.508900 10.994158 -4.199400 7.125000 0.000000 0.000000 4.414100 -18.114400 2.831400 
31.254548 18.126589 20.977718 -176.793456 1.083049 -175.874903 -5.082248 -2.977483 -0.221742 -11.991083 -0.186205 -13.756566 1.787104 10.982389 29.727601 1.360688 -10.396645 -10.209134 0.014200 0.769200 2.113900 4.195443 2.707618 -0.516469 18.826100 -3.552296 -8.358438 -1.970482 -11.128253 29.488078 -1.755165 5.256457 -15.431823 -0.002100 0.297000 -0.816000 4.673949 1.611030 6.251291 1.824522 2.685062 -2.599292 2.798760 1.483442 0.625976 -9.526242 1.593053 -11.642160 3.018641 -0.007283 23.585775 2.602600 -2.661800 14.904900 -0.051158 -1.297981 0.341028 -92.721547 8.281466 24.098273 16.506663 -28.011826 -4.191330 0.136589 0.555336 -2.940675 21.895042 22.211578 8.364800 -7.125000 0.000000 0.000000 -7.302200 52.968700 -1.437700 1.886977 1.104651 -0.422015 80.883300 1.039786 16.416290 -17.271104 26.709036 -4.625897 0.315987 -0.142173 -9.813357 -20.297994 13.060396 -4.917300 7.125000 0.000000 0.000000 4.647000 -15.900100 3.206800 
